<?xml version="1.0" encoding="UTF-8" standalone="no"?>
<!DOCTYPE svg PUBLIC "-//W3C//DTD SVG 1.0//EN" "http://www.w3.org/TR/2001/PR-SVG-20010719/DTD/svg10.dtd">
<svg width="20cm" height="29cm" viewBox="502 102 391 573" xmlns="http://www.w3.org/2000/svg" xmlns:xlink="http://www.w3.org/1999/xlink">
  <g>
    <ellipse style="fill: #ffffff" cx="718.8" cy="618.6" rx="114.8" ry="55.4"/>
    <ellipse style="fill: none; fill-opacity:0; stroke-width: 2; stroke: #000000" cx="718.8" cy="618.6" rx="114.8" ry="55.4"/>
  </g>
  <g>
    <ellipse style="fill: #ffffff" cx="812" cy="138" rx="80" ry="35"/>
    <ellipse style="fill: none; fill-opacity:0; stroke-width: 2; stroke: #000000" cx="812" cy="138" rx="80" ry="35"/>
  </g>
  <g>
    <rect style="fill: #ffffff" x="594" y="298" width="71" height="53"/>
    <rect style="fill: none; fill-opacity:0; stroke-width: 2; stroke: #000000" x="594" y="298" width="71" height="53"/>
    <text font-size="12.8" style="fill: #000000;text-anchor:middle;font-family:sans-serif;font-style:normal;font-weight:normal" x="629.5" y="328.381">
      <tspan x="629.5" y="328.381">HSS</tspan>
    </text>
  </g>
  <g>
    <rect style="fill: #ffffff" x="775.8" y="296.1" width="71" height="54"/>
    <rect style="fill: none; fill-opacity:0; stroke-width: 2; stroke: #000000" x="775.8" y="296.1" width="71" height="54"/>
    <text font-size="12.8" style="fill: #000000;text-anchor:middle;font-family:sans-serif;font-style:normal;font-weight:normal" x="811.3" y="318.981">
      <tspan x="811.3" y="318.981">PDN</tspan>
      <tspan x="811.3" y="334.981">GW</tspan>
    </text>
  </g>
  <g>
    <rect style="fill: #ffffff" x="775.8" y="432.6" width="71" height="54"/>
    <rect style="fill: none; fill-opacity:0; stroke-width: 2; stroke: #000000" x="775.8" y="432.6" width="71" height="54"/>
    <text font-size="12.8" style="fill: #000000;text-anchor:middle;font-family:sans-serif;font-style:normal;font-weight:normal" x="811.3" y="455.481">
      <tspan x="811.3" y="455.481">Serving</tspan>
      <tspan x="811.3" y="471.481">GW</tspan>
    </text>
  </g>
  <g>
    <rect style="fill: #ffffff" x="594.8" y="432.6" width="71" height="54"/>
    <rect style="fill: none; fill-opacity:0; stroke-width: 2; stroke: #000000" x="594.8" y="432.6" width="71" height="54"/>
    <text font-size="12.8" style="fill: #000000;text-anchor:middle;font-family:sans-serif;font-style:normal;font-weight:normal" x="630.3" y="463.481">
      <tspan x="630.3" y="463.481">MME</tspan>
    </text>
  </g>
  <g>
    <rect style="fill: #ffffff" x="685.8" y="576.6" width="71" height="54"/>
    <rect style="fill: none; fill-opacity:0; stroke-width: 2; stroke: #000000" x="685.8" y="576.6" width="71" height="54"/>
    <text font-size="12.8" style="fill: #000000;text-anchor:middle;font-family:sans-serif;font-style:normal;font-weight:normal" x="721.3" y="607.481">
      <tspan x="721.3" y="607.481">eNB</tspan>
    </text>
  </g>
  <g>
    <rect style="fill: #ffffff" x="677.8" y="570.6" width="71" height="54"/>
    <rect style="fill: none; fill-opacity:0; stroke-width: 2; stroke: #000000" x="677.8" y="570.6" width="71" height="54"/>
    <text font-size="12.8" style="fill: #000000;text-anchor:middle;font-family:sans-serif;font-style:normal;font-weight:normal" x="713.3" y="601.481">
      <tspan x="713.3" y="601.481">eNB</tspan>
    </text>
  </g>
  <polyline style="fill: none; fill-opacity:0; stroke-width: 2; stroke-dasharray: 4; stroke: #000000" points="677.8,611.1 656.8,611.1 656.8,651.6 703.55,651.6 703.55,630.6 "/>
  <text font-size="12.8" style="fill: #000000;text-anchor:start;font-family:sans-serif;font-style:normal;font-weight:normal" x="661" y="648">
    <tspan x="661" y="648">X2</tspan>
  </text>
  <polyline style="fill: none; fill-opacity:0; stroke-width: 2; stroke-dasharray: 4; stroke: #000000" points="630.3,486.6 630.3,528.6 695.55,528.6 695.55,570.6 "/>
  <text font-size="12.8" style="fill: #000000;text-anchor:start;font-family:sans-serif;font-style:normal;font-weight:normal" x="635" y="503">
    <tspan x="635" y="503">S1-MME</tspan>
  </text>
  <polyline style="fill: none; fill-opacity:0; stroke-width: 2; stroke-dasharray: 4; stroke: #000000" points="665.8,459.6 666.8,459.6 774.8,459.6 775.8,459.6 "/>
  <text font-size="12.8" style="fill: #000000;text-anchor:start;font-family:sans-serif;font-style:normal;font-weight:normal" x="669" y="455">
    <tspan x="669" y="455">S11</tspan>
  </text>
  <polyline style="fill: none; fill-opacity:0; stroke-width: 2; stroke-dasharray: 4; stroke: #000000" points="630.3,432.6 630.3,391.8 629.5,391.8 629.5,351 "/>
  <text font-size="12.8" style="fill: #000000;text-anchor:start;font-family:sans-serif;font-style:normal;font-weight:normal" x="635" y="367">
    <tspan x="635" y="367">S6a</tspan>
  </text>
  <text font-size="12.8" style="fill: #000000;text-anchor:start;font-family:sans-serif;font-style:normal;font-weight:normal" x="752" y="649">
    <tspan x="752" y="649">E-UTRAN</tspan>
  </text>
  <g>
    <rect style="fill: #ffffff" x="503.8" y="175.6" width="71" height="53"/>
    <rect style="fill: none; fill-opacity:0; stroke-width: 2; stroke: #000000" x="503.8" y="175.6" width="71" height="53"/>
    <text font-size="12.8" style="fill: #000000;text-anchor:middle;font-family:sans-serif;font-style:normal;font-weight:normal" x="539.3" y="205.981">
      <tspan x="539.3" y="205.981">UDR</tspan>
    </text>
  </g>
  <polyline style="fill: none; fill-opacity:0; stroke-width: 2; stroke-dasharray: 4; stroke: #000000" points="629.5,298 629.5,263.3 539.3,263.3 539.3,228.6 "/>
  <text font-size="12.8" style="fill: #000000;text-anchor:start;font-family:sans-serif;font-style:normal;font-weight:normal" x="545.8" y="243.482">
    <tspan x="545.8" y="243.482">Ud</tspan>
  </text>
  <polyline style="fill: none; fill-opacity:0; stroke-width: 2; stroke: #000000" points="811.3,486.6 811.3,528.6 731.05,528.6 731.05,570.6 "/>
  <text font-size="12.8" style="fill: #000000;text-anchor:start;font-family:sans-serif;font-style:normal;font-weight:normal" x="817.8" y="504.482">
    <tspan x="817.8" y="504.482">S1-U</tspan>
  </text>
  <polyline style="fill: none; fill-opacity:0; stroke-width: 2; stroke: #000000" points="811.3,350.1 811.3,391.35 811.3,391.35 811.3,432.6 "/>
  <text font-size="12.8" style="fill: #000000;text-anchor:start;font-family:sans-serif;font-style:normal;font-weight:normal" x="781" y="135">
    <tspan x="781" y="135">Exteral</tspan>
    <tspan x="781" y="151">IP Network</tspan>
  </text>
  <text font-size="12.8" style="fill: #000000;text-anchor:start;font-family:sans-serif;font-style:normal;font-weight:normal" x="817" y="367">
    <tspan x="817" y="367">S5/S8</tspan>
  </text>
  <polyline style="fill: none; fill-opacity:0; stroke-width: 2; stroke: #000000" points="811.236,172.61 811.236,242 811.3,242 811.3,296.1 "/>
  <text font-size="12.8" style="fill: #000000;text-anchor:start;font-family:sans-serif;font-style:normal;font-weight:normal" x="813.8" y="234.482">
    <tspan x="813.8" y="234.482">Sgi</tspan>
  </text>
  <g>
    <rect style="fill: #d5f5ff" x="689.8" y="147.6" width="71" height="54"/>
    <rect style="fill: none; fill-opacity:0; stroke-width: 2; stroke: #000000" x="689.8" y="147.6" width="71" height="54"/>
    <text font-size="12.8" style="fill: #000000;text-anchor:middle;font-family:sans-serif;font-style:normal;font-weight:normal" x="725.3" y="178.481">
      <tspan x="725.3" y="178.481">BM-SC</tspan>
    </text>
  </g>
  <g>
    <rect style="fill: #d5f5ff" x="687.8" y="344.6" width="71" height="54"/>
    <rect style="fill: none; fill-opacity:0; stroke-width: 2; stroke: #000000" x="687.8" y="344.6" width="71" height="54"/>
    <text font-size="12.8" style="fill: #000000;text-anchor:middle;font-family:sans-serif;font-style:normal;font-weight:normal" x="723.3" y="367.481">
      <tspan x="723.3" y="367.481">MBMS</tspan>
      <tspan x="723.3" y="383.481">GW</tspan>
    </text>
  </g>
  <polyline style="fill: none; fill-opacity:0; stroke-width: 2; stroke: #0000ff" points="734.05,201.6 734.05,272.99 734,272.99 734,343 "/>
  <polyline style="fill: none; fill-opacity:0; stroke-width: 2; stroke-dasharray: 4; stroke: #0000ff" points="716,340 716,272.8 715.8,272.8 715.8,205.6 "/>
  <text font-size="12.8" style="fill: #000000;text-anchor:start;font-family:sans-serif;font-style:normal;font-weight:normal" x="739.8" y="221.481">
    <tspan x="739.8" y="221.481">Sgi-mb</tspan>
  </text>
  <text font-size="12.8" style="fill: #000000;text-anchor:start;font-family:sans-serif;font-style:normal;font-weight:normal" x="668.8" y="220.481">
    <tspan x="668.8" y="220.481">Sg-mb</tspan>
  </text>
  <polyline style="fill: none; fill-opacity:0; stroke-width: 2; stroke-dasharray: 4; stroke: #0000ff" points="648.05,432.6 648.05,385.1 687.8,385.1 "/>
  <text font-size="12.8" style="fill: #000000;text-anchor:start;font-family:sans-serif;font-style:normal;font-weight:normal" x="658.8" y="398.481">
    <tspan x="658.8" y="398.481">Sm</tspan>
  </text>
  <polyline style="fill: none; fill-opacity:0; stroke-width: 2; stroke-dasharray: 4; stroke: #0000ff" points="677.8,584.1 612.55,584.1 612.55,486.6 "/>
  <text font-size="12.8" style="fill: #000000;text-anchor:start;font-family:sans-serif;font-style:normal;font-weight:normal" x="590.8" y="506.481">
    <tspan x="590.8" y="506.481">M3</tspan>
  </text>
  <polyline style="fill: none; fill-opacity:0; stroke-width: 2; stroke: #0000ff" points="723.3,398.6 723.3,502 713.3,502 713.3,570.6 "/>
  <text font-size="12.8" style="fill: #000000;text-anchor:start;font-family:sans-serif;font-style:normal;font-weight:normal" x="724.8" y="415.481">
    <tspan x="724.8" y="415.481">M1</tspan>
  </text>
</svg>
